<?xml version="1.0" encoding="utf-8"?>
<!-- Generator: Adobe Illustrator 25.2.3, SVG Export Plug-In . SVG Version: 6.00 Build 0)  -->
<svg version="1.1" id="Laag_1" xmlns="http://www.w3.org/2000/svg" xmlns:xlink="http://www.w3.org/1999/xlink" x="0px" y="0px"
	 viewBox="0 0 264 280" style="enable-background:new 0 0 264 280;" xml:space="preserve">
<style type="text/css">
	.st0{fill-rule:evenodd;clip-rule:evenodd;fill:#E6E6E6;}
	.st1{filter:url(#Adobe_OpacityMaskFilter);}
	.st2{fill-rule:evenodd;clip-rule:evenodd;fill:#FFFFFF;}
	.st3{mask:url(#react-mask-4_1_);}
	.st4{fill-rule:evenodd;clip-rule:evenodd;fill:#7510F7;}
	.st5{filter:url(#Adobe_OpacityMaskFilter_1_);}
	.st6{mask:url(#react-mask-5_1_);}
	.st7{fill-rule:evenodd;clip-rule:evenodd;fill:#D0C6AC;}
	.st8{filter:url(#Adobe_OpacityMaskFilter_2_);}
	.st9{mask:url(#react-mask-6_1_);}
	.st10{fill-rule:evenodd;clip-rule:evenodd;fill:#EDB98A;}
	.st11{filter:url(#Adobe_OpacityMaskFilter_3_);}
	.st12{mask:url(#react-mask-6_2_);fill-rule:evenodd;clip-rule:evenodd;fill-opacity:0.1;}
	.st13{fill-rule:evenodd;clip-rule:evenodd;fill:#B7C1DB;}
	.st14{filter:url(#Adobe_OpacityMaskFilter_4_);}
	.st15{mask:url(#react-mask-1030_1_);}
	.st16{fill-rule:evenodd;clip-rule:evenodd;fill:#25557C;}
	.st17{filter:url(#Adobe_OpacityMaskFilter_5_);}
	.st18{mask:url(#react-mask-1030_2_);fill-rule:evenodd;clip-rule:evenodd;fill:#F4F4F4;}
	.st19{filter:url(#Adobe_OpacityMaskFilter_6_);}
	.st20{mask:url(#react-mask-1030_3_);fill-rule:evenodd;clip-rule:evenodd;fill-opacity:0.16;}
	.st21{fill-rule:evenodd;clip-rule:evenodd;fill-opacity:0.7;}
	.st22{filter:url(#Adobe_OpacityMaskFilter_7_);}
	.st23{mask:url(#react-mask-1034_1_);fill-rule:evenodd;clip-rule:evenodd;fill:#FFFFFF;}
	.st24{filter:url(#Adobe_OpacityMaskFilter_8_);}
	.st25{mask:url(#react-mask-1034_2_);}
	.st26{fill-rule:evenodd;clip-rule:evenodd;fill:#FF4F6D;}
	.st27{fill-rule:evenodd;clip-rule:evenodd;fill-opacity:0.16;}
	.st28{fill-rule:evenodd;clip-rule:evenodd;fill-opacity:0.6;}
	.st29{filter:url(#Adobe_OpacityMaskFilter_9_);}
	.st30{mask:url(#react-mask-989_1_);}
	.st31{fill-rule:evenodd;clip-rule:evenodd;fill:#28354B;}
	.st32{filter:url(#Adobe_OpacityMaskFilter_10_);}
	.st33{mask:url(#react-mask-988_1_);}
	.st34{fill-rule:evenodd;clip-rule:evenodd;fill:#4A312C;}
</style>
<desc>Created with getavataaars.com</desc>
<g id="Avataaar_1_">
	<g id="Avataaar_x2F_Circle" transform="translate(-825.000000, -1100.000000)">
		<g transform="translate(825.000000, 1100.000000)">
			<g id="Circle" transform="translate(12.000000, 40.000000)">
				<g id="Circle-Background">
					<circle id="react-path-1_1_" class="st0" cx="120" cy="120" r="120"/>
				</g>
				<defs>
					<filter id="Adobe_OpacityMaskFilter" filterUnits="userSpaceOnUse" x="0" y="0" width="240" height="240">
						<feColorMatrix  type="matrix" values="1 0 0 0 0  0 1 0 0 0  0 0 1 0 0  0 0 0 1 0"/>
					</filter>
				</defs>
				<mask maskUnits="userSpaceOnUse" x="0" y="0" width="240" height="240" id="react-mask-4_1_">
					<g class="st1">
						<circle id="react-path-1_2_" class="st2" cx="120" cy="120" r="120"/>
					</g>
				</mask>
				<g id="Color_x2F_Palette_x2F_Blue-01" class="st3">
					<rect id="_xD83D__xDD8D_Color" y="0" class="st4" width="240" height="240"/>
				</g>
			</g>
			<g id="Mask">
			</g>
			<defs>
				<filter id="Adobe_OpacityMaskFilter_1_" filterUnits="userSpaceOnUse" x="-1" y="0" width="297" height="316">
					<feColorMatrix  type="matrix" values="1 0 0 0 0  0 1 0 0 0  0 0 1 0 0  0 0 0 1 0"/>
				</filter>
			</defs>
			<mask maskUnits="userSpaceOnUse" x="-1" y="0" width="297" height="316" id="react-mask-5_1_">
				<g class="st5">
					<path id="react-path-2_1_" class="st2" d="M12,160c0,66.3,53.7,120,120,120s120-53.7,120-120h12V0H0v160H12z"/>
				</g>
			</mask>
			<g id="Avataaar" class="st6">
				<g id="Body" transform="translate(32.000000, 36.000000)">
					<g>
						<path id="react-path-3_1_" class="st7" d="M124,144.6V163h4l0,0c39.8,0,72,32.2,72,72v9H0v-9c0-39.8,32.2-72,72-72l0,0h4
							v-18.4c-17.2-8.2-29.6-24.9-31.7-44.7C38.5,99.1,34,94.1,34,88V74c0-5.9,4.3-10.9,10-11.8V56l0,0c0-30.9,25.1-56,56-56l0,0
							l0,0c30.9,0,56,25.1,56,56v6.2c5.7,1,10,5.9,10,11.8v14c0,6.1-4.5,11.1-10.3,11.9C153.6,119.7,141.2,136.4,124,144.6z"/>
					</g>
					<defs>
						<filter id="Adobe_OpacityMaskFilter_2_" filterUnits="userSpaceOnUse" x="0" y="0" width="264" height="280">
							<feColorMatrix  type="matrix" values="1 0 0 0 0  0 1 0 0 0  0 0 1 0 0  0 0 0 1 0"/>
						</filter>
					</defs>
					<mask maskUnits="userSpaceOnUse" x="0" y="0" width="264" height="280" id="react-mask-6_1_">
						<g class="st8">
							<path id="react-path-3_2_" class="st2" d="M124,144.6V163h4l0,0c39.8,0,72,32.2,72,72v9H0v-9c0-39.8,32.2-72,72-72l0,0h4
								v-18.4c-17.2-8.2-29.6-24.9-31.7-44.7C38.5,99.1,34,94.1,34,88V74c0-5.9,4.3-10.9,10-11.8V56l0,0c0-30.9,25.1-56,56-56l0,0
								l0,0c30.9,0,56,25.1,56,56v6.2c5.7,1,10,5.9,10,11.8v14c0,6.1-4.5,11.1-10.3,11.9C153.6,119.7,141.2,136.4,124,144.6z"/>
						</g>
					</mask>
					<g id="Skin_x2F__xD83D__xDC76__xD83C__xDFFD_-03-Brown" class="st9">
						<g id="Color" transform="translate(0.000000, 0.000000)">
							<rect y="0" class="st10" width="264" height="280"/>
						</g>
					</g>
					<defs>
						<filter id="Adobe_OpacityMaskFilter_3_" filterUnits="userSpaceOnUse" x="44" y="79" width="112" height="79">
							<feColorMatrix  type="matrix" values="1 0 0 0 0  0 1 0 0 0  0 0 1 0 0  0 0 0 1 0"/>
						</filter>
					</defs>
					<mask maskUnits="userSpaceOnUse" x="44" y="79" width="112" height="79" id="react-mask-6_2_">
						<g class="st11">
							<path id="react-path-3_3_" class="st2" d="M124,144.6V163h4l0,0c39.8,0,72,32.2,72,72v9H0v-9c0-39.8,32.2-72,72-72l0,0h4
								v-18.4c-17.2-8.2-29.6-24.9-31.7-44.7C38.5,99.1,34,94.1,34,88V74c0-5.9,4.3-10.9,10-11.8V56l0,0c0-30.9,25.1-56,56-56l0,0
								l0,0c30.9,0,56,25.1,56,56v6.2c5.7,1,10,5.9,10,11.8v14c0,6.1-4.5,11.1-10.3,11.9C153.6,119.7,141.2,136.4,124,144.6z"/>
						</g>
					</mask>
					<path id="Neck-Shadow" class="st12" d="M156,79v23c0,30.9-25.1,56-56,56s-56-25.1-56-56V79v15c0,30.9,25.1,56,56,56
						s56-25.1,56-56V79z"/>
				</g>
				<g id="Clothing_x2F_Hoodie" transform="translate(0.000000, 170.000000)">
					<g id="Hoodie">
						<path id="react-path-1029_1_" class="st13" d="M108,13.1c-17.9,2-31.7,7.5-32,21.6C50.1,45.6,32,71.2,32,101l0,0v9h200v-9
							c0-29.8-18.1-55.4-44-66.4c-0.3-14.1-14.1-19.6-32-21.6V32l0,0c0,13.3-10.7,24-24,24l0,0c-13.3,0-24-10.7-24-24V13.1z"/>
					</g>
					<defs>
						<filter id="Adobe_OpacityMaskFilter_4_" filterUnits="userSpaceOnUse" x="0" y="0" width="264" height="110">
							<feColorMatrix  type="matrix" values="1 0 0 0 0  0 1 0 0 0  0 0 1 0 0  0 0 0 1 0"/>
						</filter>
					</defs>
					<mask maskUnits="userSpaceOnUse" x="0" y="0" width="264" height="110" id="react-mask-1030_1_">
						<g class="st14">
							<path id="react-path-1029_2_" class="st2" d="M108,13.1c-17.9,2-31.7,7.5-32,21.6C50.1,45.6,32,71.2,32,101l0,0v9h200v-9
								c0-29.8-18.1-55.4-44-66.4c-0.3-14.1-14.1-19.6-32-21.6V32l0,0c0,13.3-10.7,24-24,24l0,0c-13.3,0-24-10.7-24-24V13.1z"/>
						</g>
					</mask>
					<g id="Color_x2F_Palette_x2F_Gray-01" class="st15">
						<rect id="_xD83D__xDD8D_Color_1_" y="0" class="st16" width="264" height="110"/>
					</g>
					<defs>
						<filter id="Adobe_OpacityMaskFilter_5_" filterUnits="userSpaceOnUse" x="95" y="58.2" width="74" height="51.8">
							<feColorMatrix  type="matrix" values="1 0 0 0 0  0 1 0 0 0  0 0 1 0 0  0 0 0 1 0"/>
						</filter>
					</defs>
					<mask maskUnits="userSpaceOnUse" x="95" y="58.2" width="74" height="51.8" id="react-mask-1030_2_">
						<g class="st17">
							<path id="react-path-1029_3_" class="st2" d="M108,13.1c-17.9,2-31.7,7.5-32,21.6C50.1,45.6,32,71.2,32,101l0,0v9h200v-9
								c0-29.8-18.1-55.4-44-66.4c-0.3-14.1-14.1-19.6-32-21.6V32l0,0c0,13.3-10.7,24-24,24l0,0c-13.3,0-24-10.7-24-24V13.1z"/>
						</g>
					</mask>
					<path id="Straps" class="st18" d="M102,61.7V110h-7V58.2C97.2,59.5,99.5,60.7,102,61.7z M169,58.2v40.3c0,1.9-1.6,3.5-3.5,3.5
						s-3.5-1.6-3.5-3.5V61.7C164.5,60.7,166.8,59.5,169,58.2z"/>
					<defs>
						<filter id="Adobe_OpacityMaskFilter_6_" filterUnits="userSpaceOnUse" x="65.5" y="12.7" width="133" height="55.3">
							<feColorMatrix  type="matrix" values="1 0 0 0 0  0 1 0 0 0  0 0 1 0 0  0 0 0 1 0"/>
						</filter>
					</defs>
					<mask maskUnits="userSpaceOnUse" x="65.5" y="12.7" width="133" height="55.3" id="react-mask-1030_3_">
						<g class="st19">
							<path id="react-path-1029_4_" class="st2" d="M108,13.1c-17.9,2-31.7,7.5-32,21.6C50.1,45.6,32,71.2,32,101l0,0v9h200v-9
								c0-29.8-18.1-55.4-44-66.4c-0.3-14.1-14.1-19.6-32-21.6V32l0,0c0,13.3-10.7,24-24,24l0,0c-13.3,0-24-10.7-24-24V13.1z"/>
						</g>
					</mask>
					<path id="Shadow" class="st20" d="M91,12.7c-15.1,2.8-25.5,8.5-25.5,19.6C65.5,52,98.5,68,132,68s66.5-16,66.5-35.7
						c0-11.1-10.4-16.7-25.5-19.6c9.1,3.4,15,9,15,18.4c0,20.4-27.8,36.9-56,36.9S76,51.5,76,31.1C76,21.7,81.9,16.1,91,12.7z"/>
				</g>
				<g id="Face" transform="translate(76.000000, 82.000000)">
					<g id="Mouth_x2F_Smile" transform="translate(2.000000, 52.000000)">
						<g id="Mouth">
							<path id="react-path-1033_1_" class="st21" d="M35.1,15.1C36.2,24.6,44.2,32,54,32c9.8,0,17.9-7.4,18.9-17
								c0.1-0.8-0.8-2-1.8-2c-14.9,0-26.3,0-34,0C36,13,35,14.2,35.1,15.1z"/>
						</g>
						<defs>
							<filter id="Adobe_OpacityMaskFilter_7_" filterUnits="userSpaceOnUse" x="39" y="2" width="31" height="16">
								<feColorMatrix  type="matrix" values="1 0 0 0 0  0 1 0 0 0  0 0 1 0 0  0 0 0 1 0"/>
							</filter>
						</defs>
						<mask maskUnits="userSpaceOnUse" x="39" y="2" width="31" height="16" id="react-mask-1034_1_">
							<g class="st22">
								<path id="react-path-1033_2_" class="st2" d="M35.1,15.1C36.2,24.6,44.2,32,54,32c9.8,0,17.9-7.4,18.9-17
									c0.1-0.8-0.8-2-1.8-2c-14.9,0-26.3,0-34,0C36,13,35,14.2,35.1,15.1z"/>
							</g>
						</mask>
						<path id="Teeth" class="st23" d="M44,2h21c2.8,0,5,2.2,5,5v6c0,2.8-2.2,5-5,5H44c-2.8,0-5-2.2-5-5V7C39,4.2,41.2,2,44,2z"/>
						<defs>
							<filter id="Adobe_OpacityMaskFilter_8_" filterUnits="userSpaceOnUse" x="38" y="24" width="32" height="22">
								<feColorMatrix  type="matrix" values="1 0 0 0 0  0 1 0 0 0  0 0 1 0 0  0 0 0 1 0"/>
							</filter>
						</defs>
						<mask maskUnits="userSpaceOnUse" x="38" y="24" width="32" height="22" id="react-mask-1034_2_">
							<g class="st24">
								<path id="react-path-1033_3_" class="st2" d="M35.1,15.1C36.2,24.6,44.2,32,54,32c9.8,0,17.9-7.4,18.9-17
									c0.1-0.8-0.8-2-1.8-2c-14.9,0-26.3,0-34,0C36,13,35,14.2,35.1,15.1z"/>
							</g>
						</mask>
						<g id="Tongue" class="st25">
							<g transform="translate(38.000000, 24.000000)">
								<circle class="st26" cx="11" cy="11" r="11"/>
								<circle class="st26" cx="21" cy="11" r="11"/>
							</g>
						</g>
					</g>
					<g id="Nose_x2F_Default" transform="translate(28.000000, 40.000000)">
						<path id="Nose" class="st27" d="M16,8c0,4.4,5.4,8,12,8l0,0c6.6,0,12-3.6,12-8"/>
					</g>
					<g id="Eyes_x2F_Happy-_xD83D__xDE01_" transform="translate(0.000000, 8.000000)">
						<path id="Squint" class="st28" d="M16.2,22.4C18,18.6,22.2,16,27,16c4.8,0,9,2.6,10.8,6.4c0.6,1.1-0.2,2-1,1.4
							c-2.5-2.1-5.9-3.4-9.8-3.4c-3.7,0-7.1,1.2-9.6,3.2C16.5,24.3,15.6,23.6,16.2,22.4z"/>
						<path id="Squint_1_" class="st28" d="M74.2,22.4C76,18.6,80.2,16,85,16c4.8,0,9,2.6,10.8,6.4c0.6,1.1-0.2,2-1,1.4
							c-2.5-2.1-5.9-3.4-9.8-3.4c-3.7,0-7.1,1.2-9.6,3.2C74.5,24.3,73.6,23.6,74.2,22.4z"/>
					</g>
					<g id="Eyebrow_x2F_Natural_x2F_Default-Natural">
						<path id="Eyebrow" class="st28" d="M26.5,6.1c-5.8,0.3-15.2,4.5-15,10.3c0,0.2,0.3,0.3,0.4,0.1c2.8-3,22.3-5.9,29.2-4.4
							c0.6,0.1,1.1-0.5,0.7-0.9C38.5,7.5,31.7,5.9,26.5,6.1"/>
						<path id="Eyebrow_1_" class="st28" d="M86.5,6.1c5.8,0.3,15.2,4.5,15,10.3c0,0.2-0.3,0.3-0.4,0.1c-2.8-3-22.3-5.9-29.2-4.4
							c-0.6,0.1-1.1-0.5-0.7-0.9C74.5,7.5,81.3,5.9,86.5,6.1"/>
					</g>
				</g>
				<g id="Top">
					<g id="Mask_1_">
					</g>
					<defs>
						<filter id="Adobe_OpacityMaskFilter_9_" filterUnits="userSpaceOnUse" x="-1" y="0" width="264" height="280">
							<feColorMatrix  type="matrix" values="1 0 0 0 0  0 1 0 0 0  0 0 1 0 0  0 0 0 1 0"/>
						</filter>
					</defs>
					<mask maskUnits="userSpaceOnUse" x="-1" y="0" width="264" height="280" id="react-mask-989_1_">
						<g class="st29">
							<rect id="react-path-991_1_" y="0" class="st2" width="264" height="280"/>
						</g>
					</mask>
					<g id="Top_x2F_Short-Hair_x2F_Short-Curly" class="st30">
						<g transform="translate(-1.000000, 0.000000)">
							<g id="Short-Hair">
								<path id="react-path-990_1_" class="st31" d="M94.3,52c0.1-0.1-0.2-0.1-0.9-0.1C94.2,52,94.5,52,94.3,52 M86.1,36.3
									C86.1,36.3,86.1,36.5,86.1,36.3 M193.8,70.8c-0.3-3.3-0.7-6.6-1.5-9.9c-0.6-2.6-1.5-5-2.5-7.5c-0.6-1.5-2-3.5-2.2-5.1
									c-0.2-1.6,1.1-3.3,1.3-5.2c0.3-1.8,0.2-3.7-0.2-5.4c-0.8-4-3.6-7.8-7.9-8.8c-1-0.2-3,0.1-3.6-0.5c-0.8-0.6-1.3-2.8-2-3.7
									c-2-2.5-5.1-4.1-8.4-3.5c-2.4,0.4-1,0.9-2.8-0.5c-1-0.8-1.8-2-2.7-2.8c-1.5-1.3-3.2-2.4-4.9-3.3c-4.6-2.4-9.8-4.1-14.8-4.9
									c-9.3-1.5-19.2-0.2-28.2,2.2c-4.5,1.2-9,2.7-13.1,4.7c-1.8,0.9-2.8,1.6-4.7,1.8c-2.9,0.4-5.4,0.3-8.2,1.6
									c-8.5,3.8-12.4,12.7-9.1,21.2c0.7,1.7,1.6,3.2,2.8,4.6c1.5,1.7,2.1,1.3,0.8,3.3c-2,2.9-3.6,6-5,9.2
									C73.4,66.6,72.8,76.1,73,85c0.1,3.1,0.2,6.3,0.7,9.4c0.2,1.3,0.3,3.9,1.3,4.9c0.5,0.5,1.2,0.8,2,0.6
									c1.7-0.5,1.1-1.7,1.2-2.9c0.2-5.9-0.1-11.1,1.3-16.9c1-4.3,2.8-8.2,5-12c2.8-4.9,5.9-9.2,9.8-13.4c0.9-1,1.1-1.4,2.3-1.5
									c0.9-0.1,2.3,0.6,3.2,0.8c2,0.5,4,1,6,1.3c3.7,0.6,7.4,0.6,11.2,0.5c7.4-0.2,14.9-0.8,22.1-2.6c4.8-1.2,9-3.5,13.6-5.1
									c0.1,0,1.2-0.8,1.4-0.8c0.3,0,2,1.8,2.3,2c2.2,1.7,4.7,2.5,7.1,3.8c3,1.7,0.1-0.7,1.7,1.4c0.5,0.6,0.7,1.7,1.1,2.4
									c1.2,2.2,2.9,4.1,4.9,5.6c2,1.5,4.9,2.2,5.9,4.1c0.8,1.5,1,3.5,1.6,5.1c1.6,4.1,3.8,8,5.9,11.9c1.7,3.1,3.6,5.9,3.8,9.5
									c0.1,1.2-1.1,8.7,1.8,6.5c0.4-0.3,1.4-4.2,1.5-4.8c0.8-2.6,1-5.4,1.4-8.1C194,81.3,194.2,76.2,193.8,70.8"/>
							</g>
							<defs>
								<filter id="Adobe_OpacityMaskFilter_10_" filterUnits="userSpaceOnUse" x="0" y="0" width="264" height="280">
									<feColorMatrix  type="matrix" values="1 0 0 0 0  0 1 0 0 0  0 0 1 0 0  0 0 0 1 0"/>
								</filter>
							</defs>
							<mask maskUnits="userSpaceOnUse" x="0" y="0" width="264" height="280" id="react-mask-988_1_">
								<g class="st32">
									<path id="react-path-990_2_" class="st2" d="M94.3,52c0.1-0.1-0.2-0.1-0.9-0.1C94.2,52,94.5,52,94.3,52 M86.1,36.3
										C86.1,36.3,86.1,36.5,86.1,36.3 M193.8,70.8c-0.3-3.3-0.7-6.6-1.5-9.9c-0.6-2.6-1.5-5-2.5-7.5c-0.6-1.5-2-3.5-2.2-5.1
										c-0.2-1.6,1.1-3.3,1.3-5.2c0.3-1.8,0.2-3.7-0.2-5.4c-0.8-4-3.6-7.8-7.9-8.8c-1-0.2-3,0.1-3.6-0.5c-0.8-0.6-1.3-2.8-2-3.7
										c-2-2.5-5.1-4.1-8.4-3.5c-2.4,0.4-1,0.9-2.8-0.5c-1-0.8-1.8-2-2.7-2.8c-1.5-1.3-3.2-2.4-4.9-3.3c-4.6-2.4-9.8-4.1-14.8-4.9
										c-9.3-1.5-19.2-0.2-28.2,2.2c-4.5,1.2-9,2.7-13.1,4.7c-1.8,0.9-2.8,1.6-4.7,1.8c-2.9,0.4-5.4,0.3-8.2,1.6
										c-8.5,3.8-12.4,12.7-9.1,21.2c0.7,1.7,1.6,3.2,2.8,4.6c1.5,1.7,2.1,1.3,0.8,3.3c-2,2.9-3.6,6-5,9.2
										C73.4,66.6,72.8,76.1,73,85c0.1,3.1,0.2,6.3,0.7,9.4c0.2,1.3,0.3,3.9,1.3,4.9c0.5,0.5,1.2,0.8,2,0.6
										c1.7-0.5,1.1-1.7,1.2-2.9c0.2-5.9-0.1-11.1,1.3-16.9c1-4.3,2.8-8.2,5-12c2.8-4.9,5.9-9.2,9.8-13.4c0.9-1,1.1-1.4,2.3-1.5
										c0.9-0.1,2.3,0.6,3.2,0.8c2,0.5,4,1,6,1.3c3.7,0.6,7.4,0.6,11.2,0.5c7.4-0.2,14.9-0.8,22.1-2.6c4.8-1.2,9-3.5,13.6-5.1
										c0.1,0,1.2-0.8,1.4-0.8c0.3,0,2,1.8,2.3,2c2.2,1.7,4.7,2.5,7.1,3.8c3,1.7,0.1-0.7,1.7,1.4c0.5,0.6,0.7,1.7,1.1,2.4
										c1.2,2.2,2.9,4.1,4.9,5.6c2,1.5,4.9,2.2,5.9,4.1c0.8,1.5,1,3.5,1.6,5.1c1.6,4.1,3.8,8,5.9,11.9c1.7,3.1,3.6,5.9,3.8,9.5
										c0.1,1.2-1.1,8.7,1.8,6.5c0.4-0.3,1.4-4.2,1.5-4.8c0.8-2.6,1-5.4,1.4-8.1C194,81.3,194.2,76.2,193.8,70.8"/>
								</g>
							</mask>
							<g id="Skin_x2F__xD83D__xDC76__xD83C__xDFFD_-03-Brown_1_" class="st33">
								<g id="Color_1_" transform="translate(0.000000, 0.000000) ">
									<rect y="0" class="st34" width="264" height="280"/>
								</g>
							</g>
						</g>
					</g>
				</g>
			</g>
		</g>
	</g>
</g>
</svg>
